<svg width="30" height="30" viewBox="0 0 30 30" fill="none" xmlns="http://www.w3.org/2000/svg">
<path d="M15 8C15.5523 8 16.0064 7.55055 15.9376 7.00258C15.7832 5.77376 15.3449 4.59275 14.6518 3.55544C13.7727 2.23984 12.5233 1.21446 11.0615 0.608964C9.59966 0.00346267 7.99113 -0.154964 6.43928 0.153718C4.88743 0.4624 3.46197 1.22433 2.34315 2.34315C1.22433 3.46197 0.4624 4.88743 0.153718 6.43928C-0.154964 7.99113 0.00346269 9.59966 0.608964 11.0615C1.21446 12.5233 2.23984 13.7727 3.55544 14.6518C4.59275 15.3449 5.77376 15.7832 7.00258 15.9376C7.55055 16.0064 8 15.5523 8 15V15C8 14.4477 7.54924 14.0085 7.00461 13.9169C6.17213 13.7768 5.37471 13.462 4.66658 12.9888C3.67988 12.3295 2.91085 11.3925 2.45672 10.2961C2.0026 9.19974 1.88378 7.99334 2.11529 6.82946C2.3468 5.66557 2.91824 4.59647 3.75736 3.75736C4.59647 2.91824 5.66557 2.3468 6.82946 2.11529C7.99334 1.88378 9.19974 2.0026 10.2961 2.45672C11.3925 2.91085 12.3295 3.67988 12.9888 4.66658C13.462 5.37471 13.7768 6.17213 13.9169 7.00461C14.0085 7.54924 14.4477 8 15 8V8Z" fill="#3DB370"/>
<path d="M15 8C14.4477 8 13.9936 7.55055 14.0624 7.00258C14.2168 5.77376 14.6551 4.59275 15.3482 3.55544C16.2273 2.23985 17.4767 1.21447 18.9385 0.608964C20.4003 0.00346291 22.0089 -0.154964 23.5607 0.153717C25.1126 0.462399 26.538 1.22432 27.6569 2.34314C28.7757 3.46196 29.5376 4.88743 29.8463 6.43927C30.155 7.99112 29.9965 9.59966 29.391 11.0615C28.7855 12.5233 27.7602 13.7727 26.4446 14.6518C25.4072 15.3449 24.2262 15.7832 22.9974 15.9376C22.4495 16.0064 22 15.5523 22 15V15C22 14.4477 22.4508 14.0085 22.9954 13.9169C23.8279 13.7768 24.6253 13.462 25.3334 12.9888C26.3201 12.3295 27.0892 11.3925 27.5433 10.2961C27.9974 9.19974 28.1162 7.99334 27.8847 6.82946C27.6532 5.66557 27.0818 4.59647 26.2426 3.75736C25.4035 2.91824 24.3344 2.3468 23.1705 2.11529C22.0067 1.88378 20.8003 2.0026 19.7039 2.45672C18.6075 2.91085 17.6705 3.67988 17.0112 4.66658C16.538 5.37471 16.2232 6.17213 16.0831 7.00461C15.9915 7.54924 15.5523 8 15 8V8Z" fill="#3DB370"/>
<path d="M15 22C15.5523 22 16.0064 22.4494 15.9376 22.9974C15.7832 24.2262 15.3449 25.4072 14.6518 26.4446C13.7727 27.7602 12.5233 28.7855 11.0615 29.391C9.59966 29.9965 7.99113 30.155 6.43928 29.8463C4.88743 29.5376 3.46197 28.7757 2.34315 27.6569C1.22433 26.538 0.4624 25.1126 0.153718 23.5607C-0.154964 22.0089 0.00346269 20.4003 0.608964 18.9385C1.21446 17.4767 2.23984 16.2273 3.55544 15.3482C4.59275 14.6551 5.77376 14.2168 7.00258 14.0624C7.55055 13.9936 8 14.4477 8 15V15C8 15.5523 7.54924 15.9915 7.00461 16.0831C6.17213 16.2232 5.37471 16.538 4.66658 17.0112C3.67988 17.6705 2.91085 18.6075 2.45672 19.7039C2.0026 20.8003 1.88378 22.0067 2.11529 23.1705C2.3468 24.3344 2.91824 25.4035 3.75736 26.2426C4.59647 27.0818 5.66557 27.6532 6.82946 27.8847C7.99334 28.1162 9.19974 27.9974 10.2961 27.5433C11.3925 27.0892 12.3295 26.3201 12.9888 25.3334C13.462 24.6253 13.7768 23.8279 13.9169 22.9954C14.0085 22.4508 14.4477 22 15 22V22Z" fill="#3DB370"/>
<path d="M22 15C22 14.4477 22.4494 13.9936 22.9974 14.0624C24.2262 14.2168 25.4072 14.6551 26.4446 15.3482C27.7602 16.2273 28.7855 17.4767 29.391 18.9385C29.9965 20.4003 30.155 22.0089 29.8463 23.5607C29.5376 25.1126 28.7757 26.538 27.6569 27.6569C26.538 28.7757 25.1126 29.5376 23.5607 29.8463C22.0089 30.155 20.4003 29.9965 18.9385 29.391C17.4767 28.7855 16.2273 27.7602 15.3482 26.4446C14.6551 25.4072 14.2168 24.2262 14.0624 22.9974C13.9936 22.4494 14.4477 22 15 22V22C15.5523 22 15.9915 22.4508 16.0831 22.9954C16.2232 23.8279 16.538 24.6253 17.0112 25.3334C17.6705 26.3201 18.6075 27.0892 19.7039 27.5433C20.8003 27.9974 22.0067 28.1162 23.1705 27.8847C24.3344 27.6532 25.4035 27.0818 26.2426 26.2426C27.0818 25.4035 27.6532 24.3344 27.8847 23.1705C28.1162 22.0067 27.9974 20.8003 27.5433 19.7039C27.0892 18.6075 26.3201 17.6705 25.3334 17.0112C24.6253 16.538 23.8279 16.2232 22.9954 16.0831C22.4508 15.9915 22 15.5523 22 15V15Z" fill="#3DB370"/>
</svg>
